<?xml version="1.0" encoding="UTF-8" standalone="no"?>
<!-- Created with Inkscape (http://www.inkscape.org/) -->

<svg
   version="1.1"
   id="svg2"
   xml:space="preserve"
   width="601.33331"
   height="601.33331"
   viewBox="0 0 601.33331 601.33331"
   sodipodi:docname="1911.i126.008.P.m005.c33.circus magician acrobat strongman set-13.eps"
   xmlns:inkscape="http://www.inkscape.org/namespaces/inkscape"
   xmlns:sodipodi="http://sodipodi.sourceforge.net/DTD/sodipodi-0.dtd"
   xmlns="http://www.w3.org/2000/svg"
   xmlns:svg="http://www.w3.org/2000/svg"><defs
     id="defs6" /><sodipodi:namedview
     id="namedview4"
     pagecolor="#ffffff"
     bordercolor="#666666"
     borderopacity="1.0"
     inkscape:pageshadow="2"
     inkscape:pageopacity="0.0"
     inkscape:pagecheckerboard="0" /><g
     id="g8"
     inkscape:groupmode="layer"
     inkscape:label="ink_ext_XXXXXX"
     transform="matrix(1.3333333,0,0,-1.3333333,0,601.33333)"><g
       id="g10"
       transform="scale(0.1)"><path
         d="m 3143.45,2099.36 -102.69,1.75 C 3249.54,1366.27 3477.94,954.242 3477.94,954.242 l 11.15,3.379 c 0,0 -260.82,581.549 -345.64,1141.739"
         style="fill:#513f37;fill-opacity:1;fill-rule:nonzero;stroke:none"
         id="path12" /><path
         d="m 2781.52,2038 -102.24,16.45 c 140.31,-757.18 329.97,-1197.7 329.97,-1197.7 l 11.43,1.75 c 0,0 -206.34,612.94 -239.16,1179.5"
         style="fill:#513f37;fill-opacity:1;fill-rule:nonzero;stroke:none"
         id="path14" /><path
         d="m 1436,2402.91 c 256.14,158.94 314.54,402.55 314.54,402.55 L 1283.93,2610.87 1436,2402.91"
         style="fill:#352d42;fill-opacity:1;fill-rule:nonzero;stroke:none"
         id="path16" /><path
         d="m 375.055,2105.69 c 221.23,169.29 227,-184.68 436.687,-200.07 209.688,-15.39 521.338,257.78 596.368,577.13 l -217.39,76.95 c 0,0 -227.697,-527.79 -375.126,-505.95 -155.824,23.09 -195.922,163.11 -284.715,165.44 -73.106,1.93 -155.824,-113.5 -155.824,-113.5"
         style="fill:#992849;fill-opacity:1;fill-rule:nonzero;stroke:none"
         id="path18" /><path
         d="m 880.305,2073.25 c -22.555,-15.04 -44.399,-22.51 -64.711,-19.5 -155.824,23.09 -195.922,163.11 -284.715,165.44 -73.106,1.93 -155.824,-113.5 -155.824,-113.5 148.937,113.97 200.226,-9.22 281.828,-106.6 97.148,-62.69 168.418,33.94 223.422,74.16"
         style="fill:#433854;fill-opacity:1;fill-rule:nonzero;stroke:none"
         id="path20" /><path
         d="m 2725.69,2556.04 0.75,-20.06 16.98,-10.75 -18.88,-6.92 -5,-19.45 -12.42,15.78 -20.07,-1.27 11.2,16.68 -7.4,18.66 19.34,-5.48 15.5,12.81"
         style="fill:#c4aed6;fill-opacity:1;fill-rule:nonzero;stroke:none"
         id="path22" /><path
         d="m 2759.84,2640.23 -8.67,-12.17 5.08,-14.04 -14.22,4.49 -11.77,-9.19 -0.12,14.95 -12.35,8.36 14.15,4.74 4.13,14.36 8.86,-12.01 14.91,0.51"
         style="fill:#c4aed6;fill-opacity:1;fill-rule:nonzero;stroke:none"
         id="path24" /><path
         d="m 3119.62,3203.94 -14.94,0.45 -8.85,-12.03 -4.17,14.33 -14.18,4.67 12.36,8.4 0.09,14.92 11.8,-9.13 14.24,4.54 -5.06,-14.04 8.71,-12.11"
         style="fill:#c4aed6;fill-opacity:1;fill-rule:nonzero;stroke:none"
         id="path26" /><path
         d="m 2893.96,3505.81 c -27.35,9.28 -58.22,11.12 -88.36,10.19 -55.86,-1.72 -113.98,-13.64 -154.88,-43.41 -40.9,-29.77 -59.03,-80.29 -31.07,-116.86 -28.62,2.07 -49.61,-20.72 -60.52,-41.29 -15.68,-29.58 -24.91,-62.02 -17.61,-93.09 7.3,-31.08 33.39,-60.42 72.04,-71.17 -45.02,-6.74 -80.43,-36.61 -95.44,-69.89 -15.02,-33.27 -4.01,-68.85 -5.11,-103.84 -2.64,-83.81 92.92,-99.29 112.33,-110.78 23.63,-13.99 42.66,-48.39 35.87,-71 -25.46,-84.72 -19.1,-153.16 11.99,-170.56 -4.37,6.66 -8.14,13.58 -11.2,20.7 -17.72,41.21 0.8,87.93 15.52,130.34 7.26,20.94 16.99,41.76 17.72,63.32 0.73,21.56 -9.61,44.76 -33.75,55.48 -19.68,8.73 -45.84,8.19 -62.76,19.8 -25.14,17.27 -15.03,48.84 -3.03,73.48 8.34,17.1 16.67,34.2 25,51.3 1.66,3.41 3.52,7.03 7.35,9.22 3.78,2.17 8.74,2.52 13.41,2.73 36.9,1.69 74.36,0.15 110.33,7.09 35.97,6.94 71.55,24.61 82.99,51.66 13.55,32.02 -9.83,65.08 -32.37,93.38 35.66,-11.79 78.87,-2.93 110.89,14.8 32.02,17.74 55.17,43.14 77.65,68.02 14.34,15.86 29.19,32.79 30.88,51.88 1.27,14.3 -5.06,28.15 -11.3,41.54 -23.47,50.26 -52.9,105.36 -116.57,126.96"
         style="fill:#c4aed6;fill-opacity:1;fill-rule:nonzero;stroke:none"
         id="path28" /><path
         d="m 2830.4,3145.32 c -38.67,-32.62 -95.79,-48.67 -151.38,-54.38 -29.99,-3.08 -60.92,-3.46 -88.86,3.83 -17.68,4.62 -32.95,11.95 -46.45,21.06 -11.1,-10.62 -19.85,-22.82 -25.59,-35.54 -15.02,-33.27 -4.01,-68.85 -5.11,-103.84 -2.64,-83.8 92.92,-99.29 112.33,-110.78 23.63,-13.98 42.66,-48.39 35.87,-71 -25.46,-84.72 -19.1,-153.16 11.99,-170.56 -4.37,6.66 -8.14,13.58 -11.2,20.7 -17.72,41.21 0.8,87.94 15.52,130.34 7.26,20.94 16.99,41.76 17.72,63.32 0.73,21.56 -9.61,44.76 -33.75,55.48 -19.68,8.73 -45.84,8.19 -62.76,19.8 -25.14,17.27 -15.03,48.84 -3.03,73.48 8.34,17.1 16.67,34.2 25,51.3 1.66,3.41 3.52,7.03 7.35,9.22 3.78,2.17 8.74,2.52 13.41,2.73 36.9,1.69 74.36,0.15 110.33,7.09 35.97,6.94 71.55,24.61 82.99,51.66 5.68,13.41 4.82,27.01 0.31,40.36 -1.54,-1.44 -3.06,-2.89 -4.69,-4.27"
         style="fill:#b39bc9;fill-opacity:1;fill-rule:nonzero;stroke:none"
         id="path30" /><path
         d="m 2659.76,3403.75 c -12.72,13.82 -25.72,28.91 -33.75,44.82 -10.56,-13.73 -17.3,-29.12 -19.19,-44.52 17.77,3.55 36,3.98 52.94,-0.3"
         style="fill:#b39bc9;fill-opacity:1;fill-rule:nonzero;stroke:none"
         id="path32" /><path
         d="m 3010.53,3378.85 c -22.13,47.4 -49.6,99.07 -106.05,122.92 -15.91,-15.02 -36.32,-26.88 -60.11,-32.2 39.32,-7.96 67.45,-35.35 76.95,-65.82 9.5,-30.48 2.62,-63.5 -10.9,-94.12 -9.4,-21.3 -28.71,-45.53 -57.4,-45.51 16.11,-18.21 19.58,-41.21 13.66,-63.68 16.62,3.39 32.7,9.26 46.62,16.98 32.02,17.73 55.17,43.13 77.65,68.01 14.35,15.86 29.19,32.79 30.88,51.88 1.27,14.3 -5.06,28.15 -11.3,41.54"
         style="fill:#b39bc9;fill-opacity:1;fill-rule:nonzero;stroke:none"
         id="path34" /><path
         d="m 1933.93,3628.96 c -4.55,19.25 -22.34,32.91 -40.39,41.49 -17.01,8.09 -35.32,13.19 -53.81,15.04 3.09,1.73 6.36,3.64 7.94,6.8 1.58,3.16 0.47,7.89 -2.98,8.82 6.44,3.16 7.67,13.3 2.16,17.96 -2.41,2.04 -5.57,2.95 -8.65,3.7 -19.52,4.77 -39.96,5.15 -59.36,1.14 -8.44,-1.74 -17.01,-4.48 -23.25,-10.37 -6.23,-5.88 -9.51,-15.6 -5.8,-23.37 -6.64,5.44 -17.65,0.24 -19.64,-7.55 -0.25,10.43 -7.09,20.34 -15.9,26.11 -9.94,6.51 -21.93,8.74 -33.58,10.25 -31.82,4.14 -64.77,3.79 -93.81,-8.64 -28.78,-12.31 -53.24,-38.38 -57.64,-70.14 -1.79,-12.9 0.09,-27.14 8.34,-37.07 5.24,-6.32 12.52,-10.34 18.8,-15.58 6.29,-5.26 11.94,-12.78 11.44,-21.11 -30.61,6.5 -63.22,-17.01 -68.1,-48.81 -3.39,-22.1 5.01,-44.71 15.25,-64.93 7.97,-15.77 18.17,-31.89 33.81,-39.08 l 2.25,-0.86 c 0.23,-1.35 0.71,-2.71 1.23,-3.98 10.22,-24.58 42.5,-36.62 64.13,-23.67 7.85,-4.64 18.56,-2.39 23.56,4.96 11.92,-14.41 27.93,-25.37 45.43,-31.02 3.14,-1.02 6.61,-1.86 9.55,-0.6 2.95,1.26 4.66,5.51 2.46,8.11 l 159.74,102.47 c 21.99,-1.76 41,13.24 55.25,29.46 6.35,7.23 12.51,15.57 12.65,25.33 0.13,9.76 -8.65,20.37 -18.31,18.65 12.52,17.16 21.47,36.94 26.14,57.79 2.1,9.39 3.33,19.24 1.09,28.7"
         style="fill:#663c40;fill-opacity:1;fill-rule:nonzero;stroke:none"
         id="path36" /><path
         d="m 1918.27,3538.57 -2.64,-0.65 c 3.87,-7.99 0.46,-18.4 -7.48,-22.88 0.42,-25.21 -26.15,-47.15 -52.55,-43.71 -1.36,0.17 -2.77,0.44 -4.06,0.91 l -1.86,-1.52 c -14.05,-9.95 -33.11,-10.72 -50.75,-9.76 -22.64,1.24 -46.42,5.26 -63.87,19.24 -25.11,20.12 -29.17,60.12 -8.24,83.39 -6.97,4.6 -16.31,3.46 -24,0.63 -7.68,-2.81 -14.8,-7.11 -22.89,-8.49 -12.73,-2.19 -26,3.3 -36.28,11.3 -25.31,19.68 -35.67,53.9 -31.95,84.98 2.96,24.8 13.74,47.92 27.74,69.13 -18.17,-0.64 -36.02,-3.71 -52.58,-10.8 -28.78,-12.31 -53.24,-38.38 -57.64,-70.14 -1.79,-12.9 0.09,-27.14 8.34,-37.07 5.24,-6.32 12.52,-10.34 18.8,-15.58 6.29,-5.26 11.94,-12.77 11.44,-21.11 -30.61,6.5 -63.22,-17.01 -68.1,-48.81 -3.39,-22.1 5.01,-44.71 15.25,-64.93 7.97,-15.77 18.17,-31.89 33.81,-39.08 l 2.25,-0.86 c 0.23,-1.35 0.71,-2.71 1.23,-3.98 10.22,-24.58 42.5,-36.62 64.13,-23.67 7.85,-4.64 18.56,-2.39 23.56,4.96 11.92,-14.41 27.93,-25.37 45.43,-31.02 3.14,-1.02 6.61,-1.86 9.55,-0.6 2.95,1.26 4.66,5.51 2.46,8.11 l 159.74,102.47 c 21.99,-1.76 41,13.24 55.25,29.46 6.35,7.23 12.51,15.57 12.65,25.33 0.07,5.43 -2.67,11.06 -6.74,14.75"
         style="fill:#543136;fill-opacity:1;fill-rule:nonzero;stroke:none"
         id="path38" /><path
         d="m 3137.51,1867.83 c 0,0 -241.72,-49.96 -362.57,-81.87 l 6.29,-55.76 c 62.95,47.01 365.1,95.6 365.1,95.6 l -8.82,42.03"
         style="fill:#513f37;fill-opacity:1;fill-rule:nonzero;stroke:none"
         id="path40" /><path
         d="m 3028.45,1906.12 c 0,0 -301.75,-55.48 -452.62,-90.91 l 7.86,-61.92 c 78.58,52.2 455.76,106.16 455.76,106.16 l -11,46.67"
         style="fill:#6d5346;fill-opacity:1;fill-rule:nonzero;stroke:none"
         id="path42" /><path
         d="m 2816.85,2854.98 c -34.71,36.74 -35.24,96.09 -5.76,137.43 29.47,41.35 84.48,64.01 137.29,62.01 52.82,-1.99 102.64,-26.63 138.8,-62.13 24.57,-24.13 44.04,-55.21 43.35,-88.73 -0.87,-42.93 -37.26,-79.8 -81.24,-93.95 2.81,-2.12 5.53,-4.33 8.09,-6.54 12.66,-10.94 25.33,-22.32 33.52,-36.51 8.2,-14.19 11.37,-31.83 4.3,-46.74 -8.56,-18.05 -29.41,-27.89 -48.99,-35.38 -13.58,-5.19 -27.34,-9.96 -41.24,-14.31 25.13,-5.31 50.69,-16.91 62.26,-38.31 13.93,-25.78 2.37,-59.49 -21.35,-78.63 -23.73,-19.14 -56.71,-25.54 -87.79,-23.97 -7.73,0.39 -15.86,1.16 -22.91,-1.92 -7.05,-3.08 -12.01,-11.77 -7.72,-17.73 l 1.74,-1.32 c -15.41,-3.81 -29.02,-13.8 -36.65,-26.88 -8.34,-14.3 -9.44,-31.15 -15.21,-46.48 -9.87,-26.2 -32.01,-45.13 -58.63,-58.48 7.45,5.17 14.31,11.09 20.15,17.84 20.18,23.33 28.82,54.92 22.98,84.08 -3.32,16.62 -11.03,32.29 -13.2,49.09 -2.16,16.79 2.99,36.33 18.88,44.79 9.88,5.27 23.53,6.3 28.91,15.65 5.06,8.78 -0.64,19.41 -7.28,27.06 -6.63,7.66 -14.76,15.49 -14.93,25.39 -0.08,4.85 3.4,9.49 7.74,12.1 -32.39,2.95 -63.42,15.37 -90.02,32.77 -24.13,15.79 -45.52,36.3 -56.81,61.73 -11.28,25.44 -11.26,56.25 4.66,79.82 15.92,23.57 49.17,37.33 77.06,28.25"
         style="fill:#c4aed6;fill-opacity:1;fill-rule:nonzero;stroke:none"
         id="path44" /><path
         d="m 2755.43,2355.33 c 21.48,4.38 43.6,11.21 63.28,21.08 -18.3,-12.7 -40.61,-20.38 -63.28,-21.08"
         style="fill:#c4aed6;fill-opacity:1;fill-rule:nonzero;stroke:none"
         id="path46" /><path
         d="m 2814.23,2935.43 c -6.7,8.33 -13.23,16.9 -18.62,25.97 -4.4,-13.55 -6.28,-27.78 -5.54,-41.8 9.89,3.82 20.32,6.55 30.95,7.95 -2.38,2.59 -4.67,5.25 -6.79,7.88"
         style="fill:#b39bc9;fill-opacity:1;fill-rule:nonzero;stroke:none"
         id="path48" /><path
         d="m 3057.38,2803.07 -1.61,1.3 c 5.95,-35.24 -6.53,-73.45 -33.14,-99.33 -36.4,-35.4 -94.58,-47.84 -146.18,-36.42 -51.61,11.42 -96.21,44.59 -125.42,85.99 -9.5,13.46 -17.48,28.29 -22.57,43.68 -3.04,-17.15 -0.45,-35.33 6.67,-51.38 11.29,-25.43 32.68,-45.94 56.81,-61.73 26.6,-17.4 57.63,-29.82 90.02,-32.77 -4.34,-2.61 -7.82,-7.25 -7.74,-12.1 0.17,-9.9 8.3,-17.73 14.93,-25.39 6.64,-7.65 12.34,-18.28 7.28,-27.06 -5.38,-9.35 -19.03,-10.38 -28.91,-15.65 -15.89,-8.46 -21.04,-28 -18.88,-44.79 2.17,-16.8 9.88,-32.47 13.2,-49.09 5.84,-29.16 -2.8,-60.75 -22.97,-84.08 -5.85,-6.75 -12.71,-12.67 -20.16,-17.84 26.62,13.35 48.76,32.28 58.63,58.48 5.77,15.33 6.87,32.18 15.21,46.48 7.63,13.08 21.24,23.07 36.65,26.88 l -1.74,1.32 c -4.29,5.96 0.67,14.65 7.72,17.73 7.05,3.08 15.18,2.31 22.91,1.92 31.08,-1.57 64.06,4.83 87.79,23.97 23.72,19.14 35.28,52.85 21.35,78.63 -11.57,21.4 -37.13,33 -62.26,38.31 13.9,4.35 27.66,9.12 41.24,14.31 19.58,7.49 40.43,17.33 48.99,35.38 7.07,14.91 3.9,32.55 -4.3,46.74 -8.19,14.19 -20.86,25.57 -33.52,36.51"
         style="fill:#b39bc9;fill-opacity:1;fill-rule:nonzero;stroke:none"
         id="path50" /><path
         d="m 3041.58,2841.28 c 6.05,-9.31 10.19,-19.42 12.73,-29.88 17.84,6.54 34.19,16.77 47.15,29.62 -18.87,-8.52 -41.67,-9.57 -59.88,0.26"
         style="fill:#b39bc9;fill-opacity:1;fill-rule:nonzero;stroke:none"
         id="path52" /><path
         d="m 2623.67,2152.21 c -22.24,24.25 -17.28,67.87 -8.32,99.54 8.96,31.67 27.09,59.81 41.52,89.39 14.43,29.57 25.42,62.88 18.62,95.08 -9.9,46.93 -56.77,79.42 -104.36,85.33 -9.05,1.12 -20.31,3.09 -22.77,11.88 -2.85,10.19 8.96,17.89 13.95,27.23 7.02,13.13 -0.92,30.29 -13.46,38.31 -12.55,8.01 -28.18,9.12 -43.06,9.49 18.79,28.35 34.97,58.44 48.25,89.76 15.4,36.28 26.99,76.89 16.14,114.79 -7.72,26.96 -26.18,49.75 -47.49,67.99 -65.07,55.71 -161.28,72.27 -241.23,41.54 -79.96,-30.74 -140.3,-107.48 -151.3,-192.43 -8.28,-63.9 15.13,-136.45 71.98,-166.78 5.29,-2.82 12.18,-4.62 18.16,-4.26 -0.67,-5.84 2.66,-11.38 6.46,-15.86 13.09,-15.46 32.33,-23.28 52.58,-24.68 -41.16,-12.89 -78.79,-36.16 -104.02,-70.74 -35.79,-49.03 -40.44,-122.44 -1.48,-169 21.32,-25.48 52.58,-40.63 84.26,-50.63 19.81,-6.25 40.54,-10.81 61.23,-9.06 48.23,4.08 86.51,40.59 120.78,74.77 11.21,11.18 23.13,22.75 38.35,27.12 25.95,7.47 53.99,-9.06 68.48,-31.85 14.49,-22.79 0.27,-175.82 170.89,-170.08 l 3.08,3.12 c -35.41,-1.55 -73.28,3.91 -97.24,30.03"
         style="fill:#c4aed6;fill-opacity:1;fill-rule:nonzero;stroke:none"
         id="path54" /><path
         d="m 2472.23,2827.16 c 17.41,10.42 37.67,15 57.24,9.79 5.69,-1.51 11.59,-4.15 14.37,-9.33 4.7,3.72 11.38,6.18 17.33,6.89 l 0.17,0.01 c -9.45,17.76 -23.27,33.32 -38.65,46.48 -4.8,4.11 -9.83,7.95 -14.95,11.63 -7.85,-23.45 -20.11,-45.59 -35.51,-65.47"
         style="fill:#b39bc9;fill-opacity:1;fill-rule:nonzero;stroke:none"
         id="path56" /><path
         d="m 2623.67,2152.21 c -22.24,24.25 -17.28,67.87 -8.32,99.54 8.96,31.67 27.09,59.81 41.52,89.39 14.43,29.57 25.42,62.88 18.62,95.08 -1.48,7.01 -3.87,13.66 -6.88,19.99 -50.01,-47.02 -120.5,-72.43 -188.99,-65.57 -27.9,2.79 -56.08,10.94 -77.81,28.66 -30.56,24.9 -44.26,64.85 -52.36,103.43 -6.98,33.29 -10.9,67.23 -11.68,101.23 -12.43,-8.2 -25.89,-16.22 -40.76,-16.81 -14.88,-0.59 -31.2,8.96 -32.94,23.75 -1.24,10.51 4.05,23.58 -4.11,30.32 -7.04,5.8 -17.41,0.99 -25.48,-3.26 -29.5,-15.54 -66.04,-20.29 -97.32,-10.73 10.97,-35.42 32.49,-66.57 64.98,-83.9 5.29,-2.82 12.18,-4.62 18.16,-4.26 -0.67,-5.84 2.66,-11.38 6.46,-15.86 13.09,-15.46 32.33,-23.28 52.58,-24.68 -41.16,-12.89 -78.79,-36.16 -104.02,-70.74 -35.79,-49.03 -40.44,-122.44 -1.48,-169 21.32,-25.48 52.58,-40.63 84.26,-50.63 19.81,-6.25 40.54,-10.81 61.23,-9.06 48.23,4.08 86.51,40.59 120.78,74.77 11.21,11.18 23.13,22.75 38.35,27.12 25.95,7.47 53.99,-9.06 68.48,-31.85 14.49,-22.79 0.27,-175.82 170.89,-170.08 l 3.08,3.12 c -35.41,-1.55 -73.28,3.91 -97.24,30.03"
         style="fill:#b39bc9;fill-opacity:1;fill-rule:nonzero;stroke:none"
         id="path58" /><path
         d="m 2792.11,3378.9 c -17.52,13.45 -63.75,46.18 -133.78,58.34 -25.95,4.51 -50.97,-10.29 -60.32,-35.26 l -11.07,-29.54 c -8.12,-21.65 -5.12,-65.85 17.7,-87.55 23.94,-22.79 70.28,-22.97 97.71,-26.41 71.92,-9.01 111.4,103.81 89.76,120.42"
         style="fill:#e79b69;fill-opacity:1;fill-rule:nonzero;stroke:none"
         id="path60" /><path
         d="m 2613.4,3284.64 561.26,497.78 10.1,-10.1 -559.82,-523.75 -11.54,36.07"
         style="fill:#6d5346;fill-opacity:1;fill-rule:nonzero;stroke:none"
         id="path62" /><path
         d="m 3076.79,3671.3 49.26,46.09 -11.97,11.3 -50.58,-44.86 13.29,-12.53"
         style="fill:#ead57a;fill-opacity:1;fill-rule:nonzero;stroke:none"
         id="path64" /><path
         d="m 2707.66,3314.43 c -25.61,16.36 -35.42,9.13 -42.84,-3.12 -7.36,-12.14 -9.64,-24.7 15.23,-41.32 25.46,-17.01 52.96,-21.18 60.93,-8.85 8.06,12.46 -7.09,36.53 -33.32,53.29"
         style="fill:#edb984;fill-opacity:1;fill-rule:nonzero;stroke:none"
         id="path66" /><path
         d="m 2742.28,3362.81 c -28.12,16.8 -38.42,9.38 -45.99,-3.19 -7.5,-12.45 -9.53,-25.35 17.77,-42.45 28.01,-17.56 57.83,-21.92 66.01,-9.22 8.27,12.81 -8.93,37.6 -37.79,54.86"
         style="fill:#edb984;fill-opacity:1;fill-rule:nonzero;stroke:none"
         id="path68" /><path
         d="m 2774.1,3417.04 c -27.42,15.73 -37.98,7.65 -45.99,-5.55 -7.93,-13.07 -10.43,-26.32 16.17,-42.37 27.25,-16.45 56.78,-19.38 65.41,-6.06 8.71,13.45 -7.48,37.84 -35.59,53.98"
         style="fill:#edb984;fill-opacity:1;fill-rule:nonzero;stroke:none"
         id="path70" /><path
         d="m 2724.66,3457.12 c -13.66,22.48 -58.7,18.89 -99.29,-6.75 -39,-24.64 -90.92,-41.7 -79.73,-62.74 11.36,-21.34 84.66,-41.31 125.65,-17.61 42.7,24.69 67.24,64.26 53.37,87.1"
         style="fill:#edb984;fill-opacity:1;fill-rule:nonzero;stroke:none"
         id="path72" /><path
         d="m 2786.61,3459.08 c -4.48,4.02 -34.18,3.48 -77.51,17.77 -30.4,10.03 -63.15,-20.97 -57.17,-56.97 22.43,-13.68 122.35,-15.34 135.27,-5.1 14.11,11.17 9.17,35.54 -0.59,44.3"
         style="fill:#edb984;fill-opacity:1;fill-rule:nonzero;stroke:none"
         id="path74" /><path
         d="m 2490.43,3400.3 71.37,-188.48 74.04,41.99 -60.85,190.46 -84.56,-43.97"
         style="fill:#f7f5df;fill-opacity:1;fill-rule:nonzero;stroke:none"
         id="path76" /><path
         d="m 2389.03,2238.29 c -7.92,20.25 -78.47,86.4 -121.27,119.39 l -96.54,-86.07 c 40.14,-83.56 135.98,-123.65 150.88,-110.81 14.91,12.85 74.85,57.24 66.93,77.49"
         style="fill:#edb984;fill-opacity:1;fill-rule:nonzero;stroke:none"
         id="path78" /><path
         d="m 2430.13,2332.76 c -7.79,4.93 -93.64,-4.65 -168.84,30.24 l 20.12,-72.97 c 20.65,-10.17 139.09,-7.77 152.44,2.1 15,11.1 7.77,33.36 -3.72,40.63"
         style="fill:#edb984;fill-opacity:1;fill-rule:nonzero;stroke:none"
         id="path80" /><path
         d="m 2399.52,2197.44 c -1.48,6.53 -47.95,18.53 -91.71,28.52 l -2.76,-49.61 c 0,0 68.82,-18.36 79.68,-11.47 10.87,6.89 16.26,26.02 14.79,32.56"
         style="fill:#edb984;fill-opacity:1;fill-rule:nonzero;stroke:none"
         id="path82" /><path
         d="m 2214.37,2212.56 c 47.82,-68.4 157.61,-100.08 166.72,-96.16 9.12,3.92 29.24,20.57 18.41,27.92 -10.83,7.35 -71.56,31.37 -80.02,44.04 -8.46,12.67 -50.6,96.11 -53.03,95.51 -2.42,-0.6 -52.08,-71.31 -52.08,-71.31"
         style="fill:#edb984;fill-opacity:1;fill-rule:nonzero;stroke:none"
         id="path84" /><path
         d="m 2198.77,2419.26 -84.64,-205.84 75.02,-38.47 92.34,198.14 -82.72,46.17"
         style="fill:#f7f5df;fill-opacity:1;fill-rule:nonzero;stroke:none"
         id="path86" /><path
         d="m 2443.09,1906.58 c 406.87,17.32 747.04,137.16 747.04,137.16 l -16.98,76.38 -738.72,-80.8 8.66,-132.74"
         style="fill:#6d5346;fill-opacity:1;fill-rule:nonzero;stroke:none"
         id="path88" /><path
         d="m 3048.04,2012.84 -126.91,17.26 C 3067.08,1271.39 3286.77,829.129 3286.77,829.129 l 14.33,1.66 c 0,0 -233.87,614.911 -253.06,1182.051"
         style="fill:#6d5346;fill-opacity:1;fill-rule:nonzero;stroke:none"
         id="path90" /><path
         d="m 2630.65,1984.49 -124.08,31.75 c 57.72,-770.47 225.08,-1235.06 225.08,-1235.06 h 14.43 c 0,0 -161.59,637.73 -115.43,1203.31"
         style="fill:#6d5346;fill-opacity:1;fill-rule:nonzero;stroke:none"
         id="path92" /><path
         d="m 2523.89,3433.08 c 0,0 -342.43,-175.06 -371.29,-175.06 -28.86,0 -309.72,21.16 -482.09,62.91 l 124.27,-291.84 c 0,0 311.65,-36.55 367.44,-28.85 55.79,7.69 427.07,180.83 427.07,180.83 l -65.4,252.01"
         style="fill:#4d415e;fill-opacity:1;fill-rule:nonzero;stroke:none"
         id="path94" /><path
         d="m 2246.79,3150.78 c -250.14,-36.47 -466.15,24.73 -482.48,136.7 -0.7,4.79 -0.88,9.6 -0.84,14.42 -32.86,5.78 -64.42,12.12 -92.96,19.03 l 124.27,-291.84 c 0,0 311.65,-36.55 367.44,-28.85 55.79,7.69 427.07,180.83 427.07,180.83 l -21.31,82.13 c -76.88,-51.55 -190.76,-93.4 -321.19,-112.42"
         style="fill:#433854;fill-opacity:1;fill-rule:nonzero;stroke:none"
         id="path96" /><path
         d="M 947.684,2523 C 798.59,2464.8 755.477,2036.92 730.469,1913.8 705.457,1790.68 548.191,1549.72 338.504,1586.28 c 0,0 234.691,-98.12 423.223,125.04 188.527,223.16 213.921,630.38 475.363,749.96 L 947.684,2523"
         style="fill:#cc4662;fill-opacity:1;fill-rule:nonzero;stroke:none"
         id="path98" /><path
         d="M 947.684,2523 C 835.141,2479.07 783,2224.55 753.434,2049.41 c 35.804,-73.83 58.293,-164.74 61.683,-263.76 142.789,229.69 187.443,568.36 421.973,675.63 L 947.684,2523"
         style="fill:#b23654;fill-opacity:1;fill-rule:nonzero;stroke:none"
         id="path100" /><path
         d="m 744.414,1899.85 c 25.008,123.12 63.484,555.97 212.574,614.16 l 263.822,-60.95 c 5.37,2.81 10.7,5.67 16.28,8.22 l -303.188,70.04 C 784.813,2473.13 746.336,2040.28 721.328,1917.16 696.32,1794.04 548.191,1549.73 338.504,1586.28 c 0,0 34.961,-14.54 88.633,-19.68 174.597,17.26 294.965,223.4 317.277,333.25"
         style="fill:#4d415e;fill-opacity:1;fill-rule:nonzero;stroke:none"
         id="path102" /><path
         d="M 1425.42,2657.81 1178.94,2188.47 C 1409.79,1538.24 2039.1,862.941 2039.1,862.941 1800.55,1205.37 1456.2,2026.82 1425.42,2657.81"
         style="fill:#ede3c0;fill-opacity:1;fill-rule:nonzero;stroke:none"
         id="path104" /><path
         d="m 1285.95,2322.11 43.22,165.8 -190.39,-336.05 c 216.21,-608.97 817.1,-1207.79 892.49,-1281.34 -210.5,275.87 -572.24,869.46 -745.32,1451.59"
         style="fill:#e0d2a4;fill-opacity:1;fill-rule:nonzero;stroke:none"
         id="path106" /><path
         d="M 1342.7,735.98 C 892.543,1451.61 981.035,2515.45 981.035,2515.45 l 427.075,86.57 -19.24,-403.99 -75.55,-48.43 c -57.71,-496.32 -78.35,-975.01 29.38,-1413.62"
         style="fill:#ede3c0;fill-opacity:1;fill-rule:nonzero;stroke:none"
         id="path108" /><path
         d="m 1146.48,1457.39 c -74.39,679.51 76.99,920.89 215.46,934.94 12,1.22 77.91,3.85 93.67,-8.75 L 1436,2606.83 981.035,2515.45 c 0,0 -84.023,-1011.15 328.935,-1725.009 -72.86,171.438 -135.39,410.239 -163.49,666.949"
         style="fill:#e0d2a4;fill-opacity:1;fill-rule:nonzero;stroke:none"
         id="path110" /><path
         d="m 1323.46,2127.81 -73.1,50.98 75.99,-1.92 113.5,57.71 -116.39,-106.77"
         style="fill:#e0d2a4;fill-opacity:1;fill-rule:nonzero;stroke:none"
         id="path112" /><path
         d="m 933.902,2531.32 c 301.548,-189.01 705.868,-3.78 824.328,249.61 138.51,296.26 70.22,441.5 70.22,441.5 0,0 -112.54,121.2 -219.21,100.36 -77.3,-15.11 -174.44,-192.37 -282.89,-386.04 -121.2,-216.42 -392.448,-405.43 -392.448,-405.43"
         style="fill:#4d415e;fill-opacity:1;fill-rule:nonzero;stroke:none"
         id="path114" /><path
         d="m 1643.54,3314.04 c -4.54,3.9 -9.22,7.57 -14.02,11.06 -6.76,-0.25 -13.53,-1 -20.28,-2.31 -77.3,-15.11 -174.44,-192.37 -282.89,-386.04 -121.2,-216.42 -392.448,-405.43 -392.448,-405.43 67.708,-42.44 140.598,-65.87 214.268,-74.04 130.46,12.74 281.99,97.11 402.7,237.36 64.97,75.47 112.64,157.38 141.74,237.34 -343.18,286.12 43.12,302.7 -49.07,382.06"
         style="fill:#433854;fill-opacity:1;fill-rule:nonzero;stroke:none"
         id="path116" /><path
         d="m 1580.77,3209.45 c 105.32,-69.26 196.22,-209.21 173.13,-379.47 0,0 155.83,311.65 -12.98,424.19 -135.85,90.57 -160.15,-44.72 -160.15,-44.72"
         style="fill:#f7f5df;fill-opacity:1;fill-rule:nonzero;stroke:none"
         id="path118" /><path
         d="m 1740.92,3254.17 c -135.85,90.57 -160.15,-44.72 -160.15,-44.72 55.36,-36.41 106.7,-92.36 139.64,-161.96 1.06,-0.01 2.08,-0.11 3.14,-0.11 34.35,0 66.68,5.92 95.24,16.21 4.08,73.61 -12.52,147.02 -77.87,190.58"
         style="fill:#e2debf;fill-opacity:1;fill-rule:nonzero;stroke:none"
         id="path120" /><path
         d="m 1800.31,3112.06 -54.82,18.75 -1.45,54.11 19.48,4.33 36.79,-77.19"
         style="fill:#ede8cc;fill-opacity:1;fill-rule:nonzero;stroke:none"
         id="path122" /><path
         d="m 1612.03,3252.73 c 50.5,111.1 96.67,233.73 96.67,233.73 l 131.29,-27.41 -79.01,-332.13 c -78.26,43.57 -102.68,95.26 -148.95,125.81"
         style="fill:#d27558;fill-opacity:1;fill-rule:nonzero;stroke:none"
         id="path124" /><path
         d="m 1566.73,2654.96 c -196.4,172.59 -204.89,339.61 -161.03,394.33 43.87,54.72 161.03,-394.33 161.03,-394.33"
         style="fill:#393149;fill-opacity:1;fill-rule:nonzero;stroke:none"
         id="path126" /><path
         d="m 1410.03,2900.2 c 82.72,-163.52 253.94,-415.53 275.1,-427.07 21.16,-11.55 442.46,-296.26 442.46,-296.26 0,0 80.8,123.12 119.28,228.93 0,0 -352.05,253.93 -365.52,269.32 -13.46,15.39 -244.31,438.62 -292.41,475.17 -48.09,36.55 -245.8,-117.87 -178.91,-250.09"
         style="fill:#4d415e;fill-opacity:1;fill-rule:nonzero;stroke:none"
         id="path128" /><path
         d="m 1892.27,3594.42 c 6.73,-153.16 -52.45,-393.57 -52.45,-393.57 0,0 -134.27,66.74 -146.14,100.03 -11.88,33.29 8.05,273.6 22.56,299.39 14.5,25.79 173.39,54.26 176.03,-5.85"
         style="fill:#edb984;fill-opacity:1;fill-rule:nonzero;stroke:none"
         id="path130" /><path
         d="m 2233.4,732.129 h -128.89 l -153.9,144.281 c 0,0 -26.93,96.559 19.24,94.449 46.17,-2.109 151.97,-194.488 151.97,-194.488 l 111.58,-44.242"
         style="fill:#f7f5df;fill-opacity:1;fill-rule:nonzero;stroke:none"
         id="path132" /><path
         d="M 1582.69,727.582 H 1299.9 c 0,0 -23.75,122.387 20.68,96.887 25.97,-14.899 262.11,-96.887 262.11,-96.887"
         style="fill:#f7f5df;fill-opacity:1;fill-rule:nonzero;stroke:none"
         id="path134" /><path
         d="m 1790.55,3619.29 c -11.5,19.06 -38.37,31.64 -58.81,22.28 l -45.25,-34.11 c -24.62,-30.25 -34.54,-70.73 -26.69,-108.92 4.44,-21.58 14.15,-42.03 23.78,-62.25 1.16,-2.43 2.4,-4.96 4.64,-6.62 1.99,-1.48 4.53,-2.08 6.98,-2.64 9.23,-2.13 18.45,-4.25 27.68,-6.37 1,-0.23 2.05,-0.36 3.11,-0.43 14.46,-0.84 26.96,8.66 30.92,21.46 12.17,39.38 32.07,71.38 40.47,114.47 4.1,21.04 4.67,44.07 -6.83,63.13"
         style="fill:#663c40;fill-opacity:1;fill-rule:nonzero;stroke:none"
         id="path136" /><path
         d="m 1721.85,3474.44 c -5.99,32.44 -28.51,51.36 -47.09,37.88 -16.58,-12.04 -20.03,-43.65 -10.64,-68.11 8.14,-21.2 24.35,-32.44 38.14,-27.15 15.01,5.76 24.65,30.03 19.59,57.38"
         style="fill:#edb984;fill-opacity:1;fill-rule:nonzero;stroke:none"
         id="path138" /><path
         d="m 1710.49,3463.95 c -3.67,19.82 -17.43,31.39 -28.79,23.15 -10.13,-7.36 -12.24,-26.68 -6.5,-41.63 4.97,-12.96 14.88,-19.83 23.31,-16.6 9.18,3.52 15.07,18.36 11.98,35.08"
         style="fill:#d27558;fill-opacity:1;fill-rule:nonzero;stroke:none"
         id="path140" /><path
         d="m 1706.38,3443.86 c -2.33,12.6 -11.08,19.94 -18.29,14.71 -6.44,-4.67 -7.79,-16.95 -4.14,-26.45 3.16,-8.23 9.46,-12.6 14.81,-10.54 5.83,2.24 9.58,11.66 7.62,22.28"
         style="fill:#edb984;fill-opacity:1;fill-rule:nonzero;stroke:none"
         id="path142" /><path
         d="m 1832.55,3469.21 c 2.94,17.38 -1.99,31.93 -11,32.48 -9.01,0.57 -18.7,-13.08 -21.63,-30.46 -2.94,-17.39 1.99,-31.93 11,-32.49 9.01,-0.56 18.7,13.08 21.63,30.47"
         style="fill:#5a4949;fill-opacity:1;fill-rule:nonzero;stroke:none"
         id="path144" /><path
         d="m 1839.87,3547.04 -41.64,-8.7 c -3.5,-0.73 -5.64,-5.52 -4.78,-10.7 l 3.27,-19.51 c 0.86,-5.18 4.41,-8.78 7.91,-8.05 l 41.65,8.71 c 3.5,0.73 5.63,5.52 4.77,10.69 l -3.27,19.52 c -0.86,5.18 -4.4,8.78 -7.91,8.04"
         style="fill:#68353e;fill-opacity:1;fill-rule:nonzero;stroke:none"
         id="path146" /><path
         d="m 1874.47,3492.54 c -6.61,-1.06 -12.43,-16.18 -13.01,-33.77 -0.58,-17.59 4.32,-30.99 10.92,-29.93 6.61,1.06 12.44,16.19 13.01,33.78 0.58,17.59 -4.31,30.99 -10.92,29.92"
         style="fill:#5a4949;fill-opacity:1;fill-rule:nonzero;stroke:none"
         id="path148" /><path
         d="m 1905.15,3527.05 -26.71,12.04 c -2.24,1.01 -4.59,-2.45 -5.25,-7.71 l -2.48,-19.89 c -0.66,-5.28 0.63,-10.38 2.88,-11.39 l 26.7,-12.04 c 2.25,-1.01 4.6,2.45 5.26,7.72 l 2.48,19.89 c 0.66,5.28 -0.63,10.38 -2.88,11.38"
         style="fill:#68353e;fill-opacity:1;fill-rule:nonzero;stroke:none"
         id="path150" /><path
         d="m 1854.43,3473.75 c 17.49,-54.58 12.22,-72.8 1.67,-82.99 -6.9,-6.67 -8.02,-15.2 -18.18,-13.17 l -0.14,-0.88 c 0,0 43.02,-21.3 54.15,-11.51 10.32,9.08 -12.42,46.89 -37.5,108.55"
         style="fill:#d27558;fill-opacity:1;fill-rule:nonzero;stroke:none"
         id="path152" /><path
         d="m 1845.28,3495.37 c 17.49,-54.59 10.55,-85.76 0,-95.95 -6.9,-6.67 -8.02,-15.2 -18.18,-13.17 l -0.14,-0.89 c 0,0 43.02,-21.3 54.15,-11.5 10.32,9.08 -10.75,59.85 -35.83,121.51"
         style="fill:#edb984;fill-opacity:1;fill-rule:nonzero;stroke:none"
         id="path154" /><path
         d="m 1856.41,3329.2 c -0.44,-4.53 -8.46,-8.81 -17.93,-9.55 -9.47,-0.74 -16.79,2.33 -16.35,6.86 0.44,4.53 7.67,0.6 17.14,1.34 9.47,0.75 17.58,5.87 17.14,1.35"
         style="fill:#d27558;fill-opacity:1;fill-rule:nonzero;stroke:none"
         id="path156" /><path
         d="m 1965.38,3395.06 c -12.03,3.72 -27.53,-0.17 -37.62,-9.07 -7.87,-6.95 -11.5,-18.21 -4.75,-26.79 5.62,-7.13 33.41,5.31 27.08,13.36 -0.77,0.98 -1.17,1.83 -1.34,2.63 4.49,-4.59 7.07,-11.44 7.11,-18.29 0.1,-13.19 -9.65,-29.14 -22.61,-25.75 -15.82,4.13 -21.34,24.49 -35.6,31.82 -17.91,9.21 -45.43,13.11 -64.01,6.26 -3.26,-1.2 -11.23,-4.54 -12.67,-9.31 -11.85,-10.17 -27.03,-23.75 -41.55,-24.73 -15.61,-1.06 -29.89,-0.23 -42.47,9.91 -25.93,20.91 -5.28,44.41 -2.26,45.59 1.18,-1.28 2.13,-2.78 2.63,-4.61 0.41,-1.5 0.63,-3.17 0.57,-4.77 l -0.16,-1.24 c -5.64,-2.57 -10.12,-5.84 -9.35,-8.22 1.55,-4.8 7.62,-3.74 11.4,-3.12 7.22,1.19 16.2,4.35 21.9,9.93 6.51,6.36 6.96,17.74 0.92,23.91 -6.82,6.98 -18.82,4.43 -27.19,1.75 -11.63,-3.71 -22.49,-10.06 -29.58,-21.31 -10.16,-16.09 -10.64,-38.36 3.74,-50.02 7.51,-6.09 17.38,-9 26.51,-11.15 12.01,-2.83 24.47,-3.2 36.85,-1.67 22.96,2.84 45.41,12.29 65.1,26.35 l 1.35,0.44 c 8.97,3.31 18.6,4.77 27.78,2.98 8.77,-1.72 14.2,-8.37 19.6,-15.44 5.58,-7.3 11.16,-13.93 19.46,-17.58 9.19,-4.04 20,-4 29.87,-1.91 18.87,4 39.1,16.63 46.57,37.28 6.21,17.17 -1.09,37.76 -17.28,42.77"
         style="fill:#663c40;fill-opacity:1;fill-rule:nonzero;stroke:none"
         id="path158" /><path
         d="m 1589.9,3260.91 48.75,57.21 c 30.97,-56.08 69.32,-132.48 122.61,-190 l -28.04,-50.69 c -41.66,72.99 -89.3,134.42 -143.32,183.48"
         style="fill:#ede8cc;fill-opacity:1;fill-rule:nonzero;stroke:none"
         id="path160" /><path
         d="m 1771.73,2622.43 c -170.01,171.49 -252.73,380.44 -223.98,529.3 -72.93,-23.26 -205.53,-67.81 -137.72,-251.53 63.46,-171.91 253.94,-415.53 275.1,-427.07 21.16,-11.54 442.46,-296.26 442.46,-296.26 0,0 35.46,54.05 70.59,121.29 -125.49,37.67 -278.5,175.03 -426.45,324.27"
         style="fill:#433854;fill-opacity:1;fill-rule:nonzero;stroke:none"
         id="path162" /><path
         d="m 2130,2282.44 c 0,12.35 -10.66,22.36 -23.81,22.36 -13.15,0 -23.8,-10.01 -23.8,-22.36 0,-12.35 10.65,-22.37 23.8,-22.37 13.15,0 23.81,10.02 23.81,22.37"
         style="fill:#e0d2a4;fill-opacity:1;fill-rule:nonzero;stroke:none"
         id="path164" /><path
         d="m 2061.64,2316.34 c 0,8.7 -7.51,15.75 -16.77,15.75 -9.26,0 -16.76,-7.05 -16.76,-15.75 0,-8.7 7.5,-15.75 16.76,-15.75 9.26,0 16.77,7.05 16.77,15.75"
         style="fill:#e0d2a4;fill-opacity:1;fill-rule:nonzero;stroke:none"
         id="path166" /><path
         d="m 2272.17,2669.08 -8.67,-12.16 5.08,-14.04 -14.23,4.49 -11.76,-9.19 -0.12,14.94 -12.36,8.37 14.16,4.74 4.13,14.36 8.86,-12.02 14.91,0.51"
         style="fill:#ffffff;fill-opacity:1;fill-rule:nonzero;stroke:none"
         id="path168" /><path
         d="m 3030.8,1994.11 165.44,48.1 -23.09,77.91 -169.64,-18.56 27.29,-107.45"
         style="fill:#513f37;fill-opacity:1;fill-rule:nonzero;stroke:none"
         id="path170" /><path
         d="m 2410.77,3026.29 -13.44,-12.84 2.98,-18.36 -16.39,8.83 -16.55,-8.48 3.31,18.3 -13.2,13.12 18.43,2.48 8.39,16.58 8.08,-16.76 18.39,-2.87"
         style="fill:#c4aed6;fill-opacity:1;fill-rule:nonzero;stroke:none"
         id="path172" /><path
         d="m 3986.9,2747.74 c -21.64,253.94 41.36,325.84 98.84,326.08 45.6,0.19 66.78,-87.55 21.64,-108.21 -42.57,-19.48 -83.69,18.04 -58.44,59.16 -24.04,-16.36 -28.61,-96.9 44.01,-86.57 114.94,16.36 85.85,142.11 25.97,172.41 -31.87,16.13 -93.85,39.53 -165.99,-88.4 -72.14,-127.93 13.77,-284.57 -115.12,-524.07 77.41,41.32 125.95,126.28 149.09,249.6"
         style="fill:#ad2b4b;fill-opacity:1;fill-rule:nonzero;stroke:none"
         id="path174" /><path
         d="m 3219.54,2650.25 c 43.82,-42.2 123.59,6.19 95.31,60.06 -93.6,178.35 -23.88,215.28 27.59,230.29 92.34,26.93 255.86,-32.7 292.41,-105.81 l 15.32,203.64 c -69.18,84.93 -328.22,214.8 -474.13,146.01 -79.24,-37.36 -208.73,-263.08 -16.35,-472.77 20.56,-22.41 40.55,-42.83 59.85,-61.42"
         style="fill:#ad2b4b;fill-opacity:1;fill-rule:nonzero;stroke:none"
         id="path176" /><path
         d="m 3184.7,3159.91 c 139.85,65.94 413.36,-26.93 455.36,-166.79 l 10.11,45.31 c -69.18,84.93 -328.22,214.8 -474.13,146.01 -64.24,-30.29 -161.44,-184.34 -93.51,-353.29 -49.78,159.1 41.06,299.95 102.17,328.76"
         style="fill:#e8345b;fill-opacity:1;fill-rule:nonzero;stroke:none"
         id="path178" /><path
         d="m 3314.85,2710.31 c -11.15,21.25 -19.92,40.44 -26.75,57.88 6.86,-21.94 17.38,-47.23 32.34,-76.39 -0.58,6.01 -2.28,12.21 -5.59,18.51"
         style="fill:#e8345b;fill-opacity:1;fill-rule:nonzero;stroke:none"
         id="path180" /><path
         d="m 3310.49,2724.81 c -75.03,126.96 -191.2,198.48 -234.19,325.03 -17.37,-28.6 -60.89,-136.17 -28.19,-422.81 26.04,-228.26 -405.91,-348.2 -629.07,-334.74 l -5.77,-9.61 c 160.33,-6.32 307.11,-20.39 469.88,-71.66 176.82,-55.7 358.63,0.24 448.71,100.99 72.91,81.55 53.66,285.83 -21.37,412.8"
         style="fill:#e8345b;fill-opacity:1;fill-rule:nonzero;stroke:none"
         id="path182" /><path
         d="m 3630.43,3059.26 c 59.06,-62.18 -164.68,-575.27 144.86,-655.39 81.76,-21.16 198.63,128.9 211.61,343.87 0,0 -61.56,-232.29 -235.18,-160.15 -130.93,54.4 -97.62,162.55 -73.58,271.25 32.22,145.73 -47.71,200.42 -47.71,200.42"
         style="fill:#e8345b;fill-opacity:1;fill-rule:nonzero;stroke:none"
         id="path184" /><path
         d="m 4118.92,3110.61 c -9.33,4.72 -21.26,10.04 -35.25,12.03 -1,0.03 -1.99,0.21 -2.99,0.21 -31.01,0 -58.82,-13.17 -81.03,-35.71 l -0.24,-0.24 c -78.16,-76.56 -26.22,-109.75 -15.45,-296.18 -11.27,219.13 47.69,282.87 101.78,283.1 45.6,0.19 66.78,-87.55 21.64,-108.21 -42.57,-19.48 -83.69,18.04 -58.44,59.16 -24.04,-16.36 -28.61,-96.9 44.01,-86.57 114.94,16.36 85.85,142.11 25.97,172.41"
         style="fill:#e8345b;fill-opacity:1;fill-rule:nonzero;stroke:none"
         id="path186" /><path
         d="m 2784.1,2352.07 c 311.38,131.05 410.78,161.27 253.89,525.49 -3.65,-62.21 -2.04,-143.98 10.12,-250.53 14.39,-126.17 -111.15,-219.22 -264.01,-274.96"
         style="fill:#c92454;fill-opacity:1;fill-rule:nonzero;stroke:none"
         id="path188" /><path
         d="m 2953.85,2282.68 c 315.49,-1.93 467.47,113.5 263.55,428.99 96.22,-248.65 39.87,-409.72 -263.55,-428.99"
         style="fill:#c92454;fill-opacity:1;fill-rule:nonzero;stroke:none"
         id="path190" /><path
         d="m 3203.5,2490.89 c 36.99,240.98 -118.35,370.74 -118.35,370.74 61.22,-135.97 116.86,-215.37 118.35,-370.74"
         style="fill:#c92454;fill-opacity:1;fill-rule:nonzero;stroke:none"
         id="path192" /><path
         d="m 3894.67,2600.54 c -36.83,-97.9 -98.09,-162.04 -167.47,-162.04 -11.87,0 -23.48,1.98 -34.8,5.58 22.07,-17.73 49.33,-31.52 82.89,-40.21 81.76,-21.16 198.63,128.9 211.61,343.87 0,0 -26.12,-98.39 -92.23,-147.2"
         style="fill:#c92454;fill-opacity:1;fill-rule:nonzero;stroke:none"
         id="path194" /><path
         d="m 3288.93,3051.42 -18.38,-2.78 -8.11,-16.75 -8.34,16.65 -18.41,2.56 13.22,13.07 -3.28,18.33 16.52,-8.56 16.39,8.76 -3.01,-18.36 13.4,-12.92"
         style="fill:#c4aed6;fill-opacity:1;fill-rule:nonzero;stroke:none"
         id="path196" /><path
         d="m 3077.67,3154.34 -21.48,-18.29 2.92,-28.08 -24.07,14.81 -25.81,-11.41 6.6,27.43 -18.87,21.04 28.15,2.15 14.15,24.41 10.79,-26.11 27.62,-5.95"
         style="fill:#c4aed6;fill-opacity:1;fill-rule:nonzero;stroke:none"
         id="path198" /><path
         d="m 2756.04,3668.25 -7.31,-27.25 18.33,-21.46 -28.22,-1.47 -14.78,-24.03 -10.13,26.34 -27.47,6.61 21.97,17.74 -2.2,28.13 23.7,-15.38 26.11,10.77"
         style="fill:#c4aed6;fill-opacity:1;fill-rule:nonzero;stroke:none"
         id="path200" /><path
         d="m 2435.85,2290.1 c -6.79,-2.6 -57.18,-34.89 -105.02,-74.39 l 48.41,-21.77 c 0,0 77.95,61.09 80.24,74.5 2.29,13.41 -13.71,25.47 -23.63,21.66"
         style="fill:#edb984;fill-opacity:1;fill-rule:nonzero;stroke:none"
         id="path202" /></g></g></svg>
